<svg xmlns="http://www.w3.org/2000/svg" viewBox="0 0 1024.0 1024.0" width="1024" height="1024" xmlns:c2pa="http://c2pa.org/manifest"><metadata><c2pa:manifest>AAAWgmp1bWIAAAAeanVtZGMycGEAEQAQgAAAqgA4m3EDYzJwYQAAABZcanVtYgAAAEdqdW1kYzJtYQARABCAAACqADibcQN1cm46YzJwYToyNzRkMjBjMC0yNzQ1LTQzZWUtYjU4YS1hZmM2MjcxM2FiMTEAAAADl2p1bWIAAAApanVtZGMyYXMAEQAQgAAAqgA4m3EDYzJwYS5hc3NlcnRpb25zAAAAALxqdW1iAAAARGp1bWRjYm9yABEAEIAAAKoAOJtxE2MycGEuaW5ncmVkaWVudC52MwAAAAAYYzJzaAJZQsrkQHwfzak8mrmmhbkAAABwY2JvcqNpZGM6Zm9ybWF0bWltYWdlL3N2Zyt4bWxqaW5zdGFuY2VJRHgseG1wOmlpZDpjMjViMTBkYS1jNGYxLTQ0M2UtYWIyYi00YzBiMDc1NDE5MWVscmVsYXRpb25zaGlwaHBhcmVudE9mAAAB4mp1bWIAAABBanVtZGNib3IAEQAQgAAAqgA4m3ETYzJwYS5hY3Rpb25zLnYyAAAAABhjMnNoKaqe6EvNrUC/oxYPKhK2QwAAAZljYm9yomdhY3Rpb25zgqJmYWN0aW9ua2MycGEub3BlbmVkanBhcmFtZXRlcnOha2luZ3JlZGllbnRzgaJjdXJseC1zZWxmI2p1bWJmPWMycGEuYXNzZXJ0aW9ucy9jMnBhLmluZ3JlZGllbnQudjNkaGFzaFggTa/krOcYyfnehugDLN/qF4LXiGQRt5T/Iys6w3JoFL6kZmFjdGlvbngdY29tLmFudGhyb3BpYy5jbGF1ZGUucHJvdmlkZWRqcGFyYW1ldGVyc6F4H2NvbS5hbnRocm9waWMub3JpZ2luLWNvbmZpZGVuY2VndW5rbm93bmtkZXNjcmlwdGlvbnhmQ2xhdWRlIHByb3ZpZGVkIHRoaXMgZmlsZSBhdCB0aGUgcmVxdWVzdCBvZiBhIHVzZXIgYW5kIG1heSBoYXZlIGNyZWF0ZWQgb3IgbW9kaWZpZWQgdGhlIGZpbGUgY29udGVudHMubXNvZnR3YXJlQWdlbnShZG5hbWVmQ2xhdWRlcmFsbEFjdGlvbnNJbmNsdWRlZPUAAADIanVtYgAAAEBqdW1kY2JvcgARABCAAACqADibcRNjMnBhLmhhc2guZGF0YQAAAAAYYzJzaOmrzTTZFGA2vdGEIqkaLnQAAACAY2JvcqVjYWxnZnNoYTI1NmNwYWRNAAAAAAAAAAAAAAAAAGRoYXNoWCAfYmnG8TH5I2I9w4FjlPfJFhbNd3a3I3QbSO3xO7GO8WRuYW1lbmp1bWJmIG1hbmlmZXN0amV4Y2x1c2lvbnOBomVzdGFydBieZmxlbmd0aBkeBAAAAj5qdW1iAAAAJ2p1bWRjMmNsABEAEIAAAKoAOJtxA2MycGEuY2xhaW0udjIAAAACD2Nib3KlY2FsZ2ZzaGEyNTZpc2lnbmF0dXJleE1zZWxmI2p1bWJmPS9jMnBhL3VybjpjMnBhOjI3NGQyMGMwLTI3NDUtNDNlZS1iNThhLWFmYzYyNzEzYWIxMS9jMnBhLnNpZ25hdHVyZWppbnN0YW5jZUlEeCx4bXA6aWlkOjI3MDZiZGY0LTAyMWItNGE1MS1hNTE3LWEyYTU0YjNiNDA1ZnJjcmVhdGVkX2Fzc2VydGlvbnODomN1cmx4LXNlbGYjanVtYmY9YzJwYS5hc3NlcnRpb25zL2MycGEuaW5ncmVkaWVudC52M2RoYXNoWCBNr+Ss5xjJ+d6G6AMs3+oXgteIZBG3lP8jKzrDcmgUvqJjdXJseCpzZWxmI2p1bWJmPWMycGEuYXNzZXJ0aW9ucy9jMnBhLmFjdGlvbnMudjJkaGFzaFggC1rNKUiNcQ7d7PNJDUZ8r/7Ub3aAxVkFW1tqrvletxGiY3VybHgpc2VsZiNqdW1iZj1jMnBhLmFzc2VydGlvbnMvYzJwYS5oYXNoLmRhdGFkaGFzaFgg/2Jky8YnPMpkLiPsSHv2tOkFSnQyyN9wpgjig7PYDHd0Y2xhaW1fZ2VuZXJhdG9yX2luZm+jZG5hbWVvQW50aHJvcGljIEZpbGVzZ3ZlcnNpb25lMS4wLjBrc3BlY1ZlcnNpb25lMi40LjAAABA4anVtYgAAAChqdW1kYzJjcwARABCAAACqADibcQNjMnBhLnNpZ25hdHVyZQAAABAIY2JvctKEWQISogEmGCFZAgowggIGMIIBjaADAgECAhRA5aAK7sI50L64g/oGQgU9Z1UTADAKBggqhkjOPQQDAzBJMRcwFQYDVQQKEw5BbnRocm9waWMsIFBCQzEuMCwGA1UEAxMlQW50aHJvcGljIENvbnRlbnQgQ3JlZGVudGlhbHMgUm9vdCBDQTAeFw0yNjA4MDcxODQzNTZaFw0yODA4MDYxOTQzNTZaMEQxFzAVBgNVBAoTDkFudGhyb3BpYywgUEJDMSkwJwYDVQQDEyBBbnRocm9waWMgQ2xhdWRlIENvbnRlbnQgU2lnbmluZzBZMBMGByqGSM49AgEGCCqGSM49AwEHA0IABJh6CmvLUBgFFNU0vUKlOVtE6djd17L5SuwX0LemFisBM3dkd/3cyjxFA3Qo5S46fX0/ihY0VZ7mfb9KF703t5OjWDBWMA4GA1UdDwEB/wQEAwIHgDAVBgNVHSUEDjAMBgorBgEEAYPoXgIBMAwGA1UdEwEB/wQCMAAwHwYDVR0jBBgwFoAUzlHiBIFOZFsj+OPEz5o+nMHXXMIwCgYIKoZIzj0EAwMDZwAwZAIwMXMdFJ4BetLLVY7ORuE9noqbbAZOZn/aArXyTwFAZfKrPzxF2vPoJNf1+UCdg1XGAjBwX1zd9WGqYkqmL5SFqw1QySjr1zJfpJM9+1rdDwSPLMOPOjKuiXjoU/pUUeG9RwmhY3BhZFkNngAAAAAAAAAAAAAAAAAAAAAAAAAAAAAAAAAAAAAAAAAAAAAAAAAAAAAAAAAAAAAAAAAAAAAAAAAAAAAAAAAAAAAAAAAAAAAAAAAAAAAAAAAAAAAAAAAAAAAAAAAAAAAAAAAAAAAAAAAAAAAAAAAAAAAAAAAAAAAAAAAAAAAAAAAAAAAAAAAAAAAAAAAAAAAAAAAAAAAAAAAAAAAAAAAAAAAAAAAAAAAAAAAAAAAAAAAAAAAAAAAAAAAAAAAAAAAAAAAAAAAAAAAAAAAAAAAAAAAAAAAAAAAAAAAAAAAAAAAAAAAAAAAAAAAAAAAAAAAAAAAAAAAAAAAAAAAAAAAAAAAAAAAAAAAAAAAAAAAAAAAAAAAAAAAAAAAAAAAAAAAAAAAAAAAAAAAAAAAAAAAAAAAAAAAAAAAAAAAAAAAAAAAAAAAAAAAAAAAAAAAAAAAAAAAAAAAAAAAAAAAAAAAAAAAAAAAAAAAAAAAAAAAAAAAAAAAAAAAAAAAAAAAAAAAAAAAAAAAAAAAAAAAAAAAAAAAAAAAAAAAAAAAAAAAAAAAAAAAAAAAAAAAAAAAAAAAAAAAAAAAAAAAAAAAAAAAAAAAAAAAAAAAAAAAAAAAAAAAAAAAAAAAAAAAAAAAAAAAAAAAAAAAAAAAAAAAAAAAAAAAAAAAAAAAAAAAAAAAAAAAAAAAAAAAAAAAAAAAAAAAAAAAAAAAAAAAAAAAAAAAAAAAAAAAAAAAAAAAAAAAAAAAAAAAAAAAAAAAAAAAAAAAAAAAAAAAAAAAAAAAAAAAAAAAAAAAAAAAAAAAAAAAAAAAAAAAAAAAAAAAAAAAAAAAAAAAAAAAAAAAAAAAAAAAAAAAAAAAAAAAAAAAAAAAAAAAAAAAAAAAAAAAAAAAAAAAAAAAAAAAAAAAAAAAAAAAAAAAAAAAAAAAAAAAAAAAAAAAAAAAAAAAAAAAAAAAAAAAAAAAAAAAAAAAAAAAAAAAAAAAAAAAAAAAAAAAAAAAAAAAAAAAAAAAAAAAAAAAAAAAAAAAAAAAAAAAAAAAAAAAAAAAAAAAAAAAAAAAAAAAAAAAAAAAAAAAAAAAAAAAAAAAAAAAAAAAAAAAAAAAAAAAAAAAAAAAAAAAAAAAAAAAAAAAAAAAAAAAAAAAAAAAAAAAAAAAAAAAAAAAAAAAAAAAAAAAAAAAAAAAAAAAAAAAAAAAAAAAAAAAAAAAAAAAAAAAAAAAAAAAAAAAAAAAAAAAAAAAAAAAAAAAAAAAAAAAAAAAAAAAAAAAAAAAAAAAAAAAAAAAAAAAAAAAAAAAAAAAAAAAAAAAAAAAAAAAAAAAAAAAAAAAAAAAAAAAAAAAAAAAAAAAAAAAAAAAAAAAAAAAAAAAAAAAAAAAAAAAAAAAAAAAAAAAAAAAAAAAAAAAAAAAAAAAAAAAAAAAAAAAAAAAAAAAAAAAAAAAAAAAAAAAAAAAAAAAAAAAAAAAAAAAAAAAAAAAAAAAAAAAAAAAAAAAAAAAAAAAAAAAAAAAAAAAAAAAAAAAAAAAAAAAAAAAAAAAAAAAAAAAAAAAAAAAAAAAAAAAAAAAAAAAAAAAAAAAAAAAAAAAAAAAAAAAAAAAAAAAAAAAAAAAAAAAAAAAAAAAAAAAAAAAAAAAAAAAAAAAAAAAAAAAAAAAAAAAAAAAAAAAAAAAAAAAAAAAAAAAAAAAAAAAAAAAAAAAAAAAAAAAAAAAAAAAAAAAAAAAAAAAAAAAAAAAAAAAAAAAAAAAAAAAAAAAAAAAAAAAAAAAAAAAAAAAAAAAAAAAAAAAAAAAAAAAAAAAAAAAAAAAAAAAAAAAAAAAAAAAAAAAAAAAAAAAAAAAAAAAAAAAAAAAAAAAAAAAAAAAAAAAAAAAAAAAAAAAAAAAAAAAAAAAAAAAAAAAAAAAAAAAAAAAAAAAAAAAAAAAAAAAAAAAAAAAAAAAAAAAAAAAAAAAAAAAAAAAAAAAAAAAAAAAAAAAAAAAAAAAAAAAAAAAAAAAAAAAAAAAAAAAAAAAAAAAAAAAAAAAAAAAAAAAAAAAAAAAAAAAAAAAAAAAAAAAAAAAAAAAAAAAAAAAAAAAAAAAAAAAAAAAAAAAAAAAAAAAAAAAAAAAAAAAAAAAAAAAAAAAAAAAAAAAAAAAAAAAAAAAAAAAAAAAAAAAAAAAAAAAAAAAAAAAAAAAAAAAAAAAAAAAAAAAAAAAAAAAAAAAAAAAAAAAAAAAAAAAAAAAAAAAAAAAAAAAAAAAAAAAAAAAAAAAAAAAAAAAAAAAAAAAAAAAAAAAAAAAAAAAAAAAAAAAAAAAAAAAAAAAAAAAAAAAAAAAAAAAAAAAAAAAAAAAAAAAAAAAAAAAAAAAAAAAAAAAAAAAAAAAAAAAAAAAAAAAAAAAAAAAAAAAAAAAAAAAAAAAAAAAAAAAAAAAAAAAAAAAAAAAAAAAAAAAAAAAAAAAAAAAAAAAAAAAAAAAAAAAAAAAAAAAAAAAAAAAAAAAAAAAAAAAAAAAAAAAAAAAAAAAAAAAAAAAAAAAAAAAAAAAAAAAAAAAAAAAAAAAAAAAAAAAAAAAAAAAAAAAAAAAAAAAAAAAAAAAAAAAAAAAAAAAAAAAAAAAAAAAAAAAAAAAAAAAAAAAAAAAAAAAAAAAAAAAAAAAAAAAAAAAAAAAAAAAAAAAAAAAAAAAAAAAAAAAAAAAAAAAAAAAAAAAAAAAAAAAAAAAAAAAAAAAAAAAAAAAAAAAAAAAAAAAAAAAAAAAAAAAAAAAAAAAAAAAAAAAAAAAAAAAAAAAAAAAAAAAAAAAAAAAAAAAAAAAAAAAAAAAAAAAAAAAAAAAAAAAAAAAAAAAAAAAAAAAAAAAAAAAAAAAAAAAAAAAAAAAAAAAAAAAAAAAAAAAAAAAAAAAAAAAAAAAAAAAAAAAAAAAAAAAAAAAAAAAAAAAAAAAAAAAAAAAAAAAAAAAAAAAAAAAAAAAAAAAAAAAAAAAAAAAAAAAAAAAAAAAAAAAAAAAAAAAAAAAAAAAAAAAAAAAAAAAAAAAAAAAAAAAAAAAAAAAAAAAAAAAAAAAAAAAAAAAAAAAAAAAAAAAAAAAAAAAAAAAAAAAAAAAAAAAAAAAAAAAAAAAAAAAAAAAAAAAAAAAAAAAAAAAAAAAAAAAAAAAAAAAAAAAAAAAAAAAAAAAAAAAAAAAAAAAAAAAAAAAAAAAAAAAAAAAAAAAAAAAAAAAAAAAAAAAAAAAAAAAAAAAAAAAAAAAAAAAAAAAAAAAAAAAAAAAAAAAAAAAAAAAAAAAAAAAAAAAAAAAAAAAAAAAAAAAAAAAAAAAAAAAAAAAAAAAAAAAAAAAAAAAAAAAAAAAAAAAAAAAAAAAAAAAAAAAAAAAAAAAAAAAAAAAAAAAAAAAAAAAAAAAAAAAAAAAAAAAAAAAAAAAAAAAAAAAAAAAAAAAAAAAAAAAAAAAAAAAAAAAAAAAAAAAAAAAAAAAAAAAAAAAAAAAAAAAAAAAAAAAAAAAAAAAAAAAAAAAAAAAAAAAAAAAAAAAAAAAAAAAAAAAAAAAAAAAAAAAAAAAAAAAAAAAAAAAAAAAAAAAAAAAAAAAAAAAAAAAAAAAAAAAAAAAAAAAAAAAAAAAAAAAAAAAAAAAAAAAAAAAAAAAAAAAAAAAAAAAAAAAAAAAAAAAAAAAAAAAAAAAAAAAAAAAAAAAAAAAAAAAAAAAAAAAAAAAAAAAAAAAAAAAAAAAAAAAAAAAAAAAAAAAAAAAAAAAAAAAAAAAAAAAAAAAAAAAAAAAAAAAAAAAAAAAAAAAAAAAAAAAAAAAAAAAAAAAAAAAAAAAAAAAAAAAAAAAAAAAAAAAAAAAAAAAAAAAAAAAAAAAAAAAAAAAAAAAAAAAAAAAAAAAAAAAAAAAAAAAAAAAAAAAAAAAAAAAAAAAAAAAAAAAAAAAAAAAAAAAAAAAAAAAAAAAAAAAAAAAAAAAAAAAAAAAAAAAAAAAAAAAAAAAAAAAAAAAAAAAAAAAAAAAAAAAAAAAAAAAAAAAAAAAAAAAAAAAAAAAAAAAAAAAAAAAAAAAAAAAAAAAAAAAAAAAAAAAAAAAAAAAAAAAAAAAAAAAAAAAAAAAAAAAAAAAAAAAAAAAAAAAAAAAAAAAAAAAAAAAAAAAAAAAAAAAAAAAAAAAAAAAAAAAAAAAAAAAAAAAAAAAAAAAAAAAAAAAAAAAAAAAAAAAAAAAAAAAAAAAAAAAAAAAAAAAAAAAAAAAAAAAAAAAAAAAAAAAAAAAAAAAAAAAAAAAAAAAAAAAAAAAAAAAAAAAAAAAAAAAAAAAAAAAAAAAAAAAAAAAAAAAAAAAAAAAAAAAAAAAAAAAAAAAAAAAAAAAAAAAAAAAAAAAAAAAAAAAAAAAAAAAAAAAAAAAAAAAAAAAAAAAAAAAAAAAAAAAAAAAAAAAAAAAAAAAAAAAAAAAAAAAAAAAAAAAAAAAAAAAAAAAAAAAAAAAAAAAAAAAAAAAAAAAAAAAAAAAAAAAAAAAAAAAAAAAAAAAAAAAAAAAAAAAAAAAAAAAAAAAAAAAAAAAAAAAAAAAAAAAAAAAAAAAAAAAAAAAAAAAAAAAAAAAAAAAAAAAAAAAAAAAAAAAAAAAAAAAAAAAAAAAAAAAAAAAAAAAAAAAAAAAAAAAAAAAAAAAAAAAAAAAAAAAAAAAAAAAAAAAAAAAAAPZYQCyYUfvTCwTtNty8QL9Bk0l0VGM53aZJ3LG2ZRsDLu6TRRiySuvSwQ7T4w3u4SQXk71HWneZLO4iB5G5auvVC+4=</c2pa:manifest></metadata><rect width="1024" height="1024" rx="230" fill="#1D3557"/><g transform="translate(287.74,187.2) scale(2.9)"><g transform="translate(-12.6,-14.7)"><path d="M45.25,238.50 C41.31,238.13 39.20,237.55 36.12,235.99 C33.63,234.72 32.30,233.86 30.40,232.26 C27.41,229.76 25.33,227.21 23.01,223.23 C21.32,220.32 19.47,214.96 18.75,210.88 C18.56,209.81 18.26,208.18 18.08,207.25 C17.19,202.58 16.87,200.78 16.87,200.44 C16.87,200.23 16.76,199.33 16.63,198.44 C16.07,194.72 15.99,194.03 15.68,190.69 C15.51,188.76 15.26,186.43 15.12,185.50 C14.99,184.57 14.82,182.72 14.75,181.38 C14.67,180.04 14.47,177.88 14.30,176.57 C14.13,175.25 13.94,172.90 13.87,171.31 C13.80,169.73 13.63,167.06 13.49,165.38 C12.94,158.68 12.56,141.92 12.66,128.27 C12.73,119.41 13.08,106.82 13.37,103.43 C13.55,101.21 13.74,97.74 13.87,94.19 C13.94,92.47 14.13,89.77 14.30,88.19 C14.47,86.61 14.67,84.19 14.75,82.81 C14.82,81.44 15.02,78.99 15.19,77.38 C15.36,75.76 15.55,73.37 15.62,72.06 C15.70,70.76 15.78,69.55 15.81,69.38 C15.84,69.20 15.93,68.16 16.00,67.06 C16.08,65.96 16.27,63.94 16.43,62.56 C16.60,61.19 16.77,59.44 16.81,58.69 C16.86,57.93 17.00,56.69 17.13,55.94 C17.27,55.18 17.51,53.65 17.68,52.53 C17.85,51.41 18.02,50.45 18.05,50.40 C18.08,50.35 18.28,49.47 18.50,48.44 C19.52,43.66 23.24,35.85 26.36,31.94 C28.83,28.85 32.52,25.47 35.15,23.89 C38.91,21.62 43.97,19.60 47.88,18.81 C48.39,18.70 49.43,18.48 50.19,18.31 C50.94,18.15 52.58,17.87 53.81,17.69 C55.05,17.52 56.71,17.26 57.50,17.13 C58.29,16.99 59.61,16.82 60.44,16.75 C61.26,16.68 62.75,16.47 63.75,16.30 C64.80,16.12 66.56,15.94 67.94,15.86 C69.24,15.79 71.97,15.60 74.00,15.43 C77.39,15.15 80.60,15.02 89.12,14.80 C95.43,14.65 103.96,15.33 107.86,16.30 C108.52,16.47 109.57,16.70 110.19,16.81 C110.81,16.92 111.59,17.10 111.94,17.19 C112.28,17.29 113.27,17.51 114.12,17.69 C116.20,18.11 117.29,18.45 120.56,19.70 C125.07,21.43 129.24,23.33 131.81,24.82 C132.36,25.14 133.52,25.79 134.38,26.27 C140.45,29.66 148.77,36.62 152.83,41.72 C156.45,46.27 158.06,48.50 160.37,52.24 C161.89,54.68 164.53,59.86 165.19,61.66 C165.44,62.36 166.03,63.92 166.50,65.12 C167.59,67.92 167.98,69.13 168.75,72.12 C169.09,73.47 169.52,75.09 169.70,75.74 C169.87,76.39 170.10,77.49 170.20,78.18 C170.30,78.87 170.49,80.00 170.63,80.69 C171.76,86.44 171.73,100.19 170.57,106.44 C170.40,107.33 170.23,108.34 170.19,108.69 C170.02,109.97 168.30,116.99 167.67,118.94 C166.30,123.17 163.36,129.73 161.25,133.25 C156.91,140.49 154.56,143.56 149.34,148.76 C144.55,153.55 142.13,155.48 135.89,159.49 C132.79,161.48 126.04,165.12 125.43,165.12 C125.39,165.12 124.36,165.55 123.15,166.07 C120.61,167.16 119.04,167.70 115.62,168.69 C114.28,169.07 112.79,169.52 112.31,169.69 C111.27,170.04 106.42,171.02 104.31,171.31 C103.49,171.42 102.25,171.61 101.56,171.75 C99.76,172.09 99.53,172.12 97.25,172.25 C86.99,172.86 85.31,173.20 83.75,174.96 C82.16,176.77 81.54,179.29 81.86,182.62 C82.02,184.24 82.17,186.07 82.38,188.75 C82.46,189.75 82.60,191.13 82.69,191.81 C83.00,194.04 83.16,197.69 83.09,200.94 C83.02,203.84 82.98,204.27 82.51,207.00 C81.63,212.18 80.93,214.79 79.74,217.40 C76.43,224.66 72.51,229.61 67.31,233.12 C63.92,235.41 61.34,236.68 58.34,237.54 C56.04,238.21 56.16,238.19 53.13,238.50 C50.23,238.80 48.52,238.80 45.25,238.50Z" fill="#E63946"/><path d="M77.93,129.45 C75.03,128.79 71.97,126.59 70.11,123.82 C69.12,122.36 68.76,121.61 68.17,119.88 C67.69,118.44 67.69,118.44 67.70,115.81 C67.70,113.19 67.70,113.19 68.16,111.66 C68.83,109.42 69.83,107.54 71.63,105.12 C72.75,103.63 74.73,101.58 78.81,97.69 C80.10,96.45 81.95,94.58 82.90,93.53 C85.49,90.70 87.34,89.23 89.81,88.05 C93.28,86.39 97.10,86.39 100.56,88.05 C103.04,89.23 104.88,90.70 107.47,93.53 C108.43,94.58 110.27,96.45 111.57,97.69 C115.65,101.58 117.63,103.63 118.74,105.12 C120.54,107.54 121.54,109.42 122.22,111.66 C122.67,113.19 122.67,113.19 122.68,115.81 C122.69,118.44 122.69,118.44 122.20,119.88 C121.62,121.61 121.25,122.36 120.27,123.82 C118.77,126.05 116.57,127.88 114.17,128.87 C112.63,129.51 111.72,129.65 109.38,129.60 C107.36,129.55 107.28,129.54 105.94,129.07 C105.18,128.81 103.47,128.07 102.12,127.44 C98.27,125.61 97.13,125.25 95.19,125.25 C93.25,125.25 92.11,125.61 88.25,127.44 C86.91,128.07 85.19,128.81 84.44,129.07 C83.07,129.55 83.06,129.55 80.88,129.59 C79.37,129.61 78.45,129.56 77.93,129.45Z M60.28,98.31 C58.88,97.83 57.89,97.34 57.06,96.73 C53.27,93.90 51.36,90.05 51.33,85.19 C51.31,82.31 51.98,80.47 53.69,78.65 C55.23,77.01 56.74,76.38 59.10,76.38 C61.83,76.38 64.17,77.48 66.79,80.00 C69.06,82.17 70.50,85.00 70.93,88.12 C71.32,90.94 71.10,92.84 70.20,94.69 C69.37,96.37 68.64,97.11 67.04,97.91 C65.72,98.56 65.72,98.56 63.45,98.59 C61.31,98.62 61.14,98.61 60.28,98.31Z M124.47,98.44 C122.30,97.62 121.11,96.58 120.18,94.69 C118.78,91.84 119.00,87.38 120.70,83.96 C122.49,80.39 125.90,77.43 129.23,76.57 C130.20,76.32 132.34,76.31 133.31,76.57 C135.92,77.25 138.19,79.73 138.84,82.62 C139.12,83.83 139.11,86.40 138.83,87.95 C138.00,92.51 134.94,96.40 130.89,98.03 C129.56,98.56 129.56,98.56 127.25,98.59 C125.50,98.61 124.82,98.57 124.47,98.44Z M80.66,81.13 C79.49,80.82 78.42,80.38 77.53,79.86 C76.72,79.39 74.39,77.13 73.76,76.21 C70.87,71.97 70.20,64.63 72.32,60.26 C73.67,57.46 75.37,55.91 78.08,55.01 C79.45,54.55 80.40,54.51 81.77,54.86 C84.29,55.51 85.84,56.63 87.99,59.37 C89.21,60.93 90.49,64.05 91.06,66.89 C92.09,72.02 90.28,77.50 86.78,79.84 C84.73,81.21 82.60,81.66 80.66,81.13Z M106.94,81.29 C103.65,80.55 101.22,78.36 100.00,75.02 C98.68,71.43 98.71,68.04 100.08,64.00 C101.46,59.95 103.97,56.78 106.83,55.48 C108.89,54.55 110.50,54.41 112.29,55.01 C115.01,55.91 116.71,57.46 118.06,60.26 C120.17,64.63 119.51,71.97 116.61,76.21 C115.99,77.13 113.65,79.39 112.85,79.86 C110.93,80.98 108.35,81.61 106.94,81.29Z" fill="#1D3557"/></g></g></svg>